Coordinates
version=1
nRows=32
nColumns=22
inDegrees=yes

Units are S.I. units (second, meters, Newtons, ...)
If the header above contains a line with 'inDegrees', this indicates whether rotational values are in degrees (yes) or radians (no).

endheader
time	pelvis_tilt	pelvis_list	pelvis_rotation	pelvis_tx	pelvis_ty	pelvis_tz	hip_flexion_r	hip_adduction_r	hip_rotation_r	knee_angle_r	ankle_angle_r	subtalar_angle_r	hip_flexion_l	hip_adduction_l	hip_rotation_l	knee_angle_l	ankle_angle_l	subtalar_angle_l	lumbar_extension	lumbar_bending	lumbar_rotation
      1.51000000	      0.61324574	     -0.06410120	      2.81815242	     -1.72582163	      1.07670022	     -0.32913412	      0.70847419	      0.60627088	     -1.45450794	    -16.05285143	     15.12187026	     -2.58040353	     -1.38622346	     -0.44284686	     -0.55007508	    -13.38724775	     15.58774366	      2.82043568	     -3.69846696	     -1.63813433	     -6.18737941
      1.52000000	      0.50117062	     -0.04938464	      2.75998541	     -1.72535344	      1.07633873	     -0.32824127	      0.97409716	      0.64639339	     -1.35800707	    -16.36900281	     15.40710456	     -2.63041278	     -1.19073553	     -0.49298371	     -0.66911415	    -13.60406517	     15.84316529	      3.29613555	     -3.67405350	     -1.66843329	     -6.20824214
      1.53000000	      0.38974367	     -0.05847404	      2.69832647	     -1.72483867	      1.07597087	     -0.32723374	      1.20252572	      0.71818736	     -1.24755570	    -16.62068313	     15.68275243	     -2.66862404	     -0.97067783	     -0.57440932	     -0.78706244	    -13.86927127	     16.08773553	      3.74791417	     -3.65602570	     -1.67568626	     -6.22822852
      1.54000000	      0.28298715	     -0.08951956	      2.63069286	     -1.72429450	      1.07559849	     -0.32610722	      1.39109617	      0.81942773	     -1.11847274	    -16.81153806	     15.93293429	     -2.68323288	     -0.72397698	     -0.68454117	     -0.90437005	    -14.19298397	     16.33472371	      4.13832983	     -3.65237338	     -1.66107915	     -6.24980530
      1.55000000	      0.18187591	     -0.15069298	      2.56183975	     -1.72374110	      1.07521882	     -0.32486795	      1.53777414	      0.95894080	     -0.97745671	    -16.93928738	     16.16265030	     -2.66796333	     -0.43777047	     -0.83072105	     -1.00876484	    -14.59814584	     16.58299555	      4.45711288	     -3.66777245	     -1.61657097	     -6.24760565
      1.56000000	      0.08249788	     -0.24061968	      2.49791533	     -1.72316362	      1.07482622	     -0.32352341	      1.64186108	      1.13477092	     -0.82206552	    -16.99788722	     16.38845400	     -2.62046711	     -0.10519377	     -1.01182444	     -1.09851306	    -15.09046405	     16.80658217	      4.71157161	     -3.69479141	     -1.54442799	     -6.24007544
      1.57000000	     -0.03631777	     -0.35390900	      2.43873230	     -1.72256971	      1.07438542	     -0.32209239	      1.73254512	      1.33736736	     -0.66460534	    -16.99888416	     16.63362615	     -2.52971021	      0.30226111	     -1.22012574	     -1.17570359	    -15.67957207	     17.00176456	      4.94842407	     -3.70983788	     -1.44954607	     -6.21607216
      1.58000000	     -0.07725306	     -0.51474475	      2.38605604	     -1.72192557	      1.07402611	     -0.32057540	      1.69910105	      1.59818757	     -0.51073890	    -16.92983965	     16.86427784	     -2.45450406	      0.67194635	     -1.48372900	     -1.22897869	    -16.35310905	     17.20882290	      4.99152789	     -3.82591948	     -1.29902165	     -6.16946711
      1.59000000	     -0.22622232	     -0.69621543	      2.33118772	     -1.72138128	      1.07350195	     -0.31895522	      1.78188350	      1.88403663	     -0.29288266	    -16.85722461	     17.05906957	     -2.26963992	      1.24790240	     -1.76949032	     -1.27642605	    -17.18228870	     17.35920855	      5.13360925	     -3.84141505	     -1.13216070	     -6.13122994
      1.60000000	     -0.30552896	     -0.91045254	      2.28793190	     -1.72078597	      1.07304654	     -0.31727823	      1.75971719	      2.20805559	     -0.10516138	    -16.73278566	     17.26869462	     -2.10617937	      1.80401177	     -2.09398032	     -1.29270495	    -18.11366552	     17.49906039	      5.17179453	     -3.94974628	     -0.92676556	     -6.06563489
      1.61000000	     -0.35379269	     -1.14978546	      2.24871030	     -1.72020271	      1.07261270	     -0.31553533	      1.69881141	      2.56245617	      0.07841834	    -16.59754309	     17.45333552	     -1.94639962	      2.39880835	     -2.44668974	     -1.27780285	    -19.17411709	     17.62020129	      5.18006201	     -4.11392560	     -0.69454688	     -5.98326615
      1.62000000	     -0.45447757	     -1.39638604	      2.21566704	     -1.71964065	      1.07208931	     -0.31374868	      1.69134809	      2.91962217	      0.22655360	    -16.45306058	     17.66589759	     -1.71885517	      3.13539672	     -2.80649492	     -1.24469392	    -20.38658908	     17.67235643	      5.24094225	     -4.23563692	     -0.46017884	     -5.87136673
      1.63000000	     -0.51267810	     -1.65558337	      2.18920509	     -1.71909051	      1.07161952	     -0.31192573	      1.63470847	      3.29178145	      0.35246356	    -16.29695935	     17.83708767	     -1.51481778	      3.90734666	     -3.17959373	     -1.17669411	    -21.74370696	     17.68615265	      5.30371600	     -4.42814991	     -0.21105060	     -5.75043535
      1.64000000	     -0.56513711	     -1.91361064	      2.16797849	     -1.71856334	      1.07115471	     -0.31008215	      1.57765955	      3.66041566	      0.44223784	    -16.14601706	     17.99337275	     -1.30964533	      4.76038981	     -3.54771779	     -1.07000672	    -23.25390539	     17.62782430	      5.40204347	     -4.64667581	      0.03470527	     -5.61424248
      1.65000000	     -0.61240793	     -2.16012438	      2.15487963	     -1.71805535	      1.07070617	     -0.30823928	      1.51731193	      4.01438251	      0.49981820	    -15.99455038	     18.12935450	     -1.11042311	      5.69740446	     -3.89763278	     -0.92347732	    -24.91887046	     17.47960527	      5.53670240	     -4.88900579	      0.26672558	     -5.47444494
      1.66000000	     -0.65539334	     -2.39532686	      2.14868131	     -1.71756796	      1.07027649	     -0.30640988	      1.46262874	      4.35376577	      0.52321402	    -15.85927627	     18.25369820	     -0.92279958	      6.71718802	     -4.22396367	     -0.71896555	    -26.73038758	     17.21878677	      5.70936928	     -5.15073120	      0.48544048	     -5.32205998
      1.67000000	     -0.69789278	     -2.60807778	      2.14949267	     -1.71709033	      1.06987249	     -0.30461674	      1.42064779	      4.66693034	      0.51973545	    -15.74720572	     18.36692321	     -0.75281658	      7.81247546	     -4.50713642	     -0.44440299	    -28.66423697	     16.81022387	      5.92367284	     -5.42622416	      0.67826666	     -5.15101125
      1.68000000	     -0.72598438	     -2.80051560	      2.16999463	     -1.71656277	      1.06951533	     -0.30288740	      1.35472906	      4.95854528	      0.50028918	    -15.62472559	     18.46745536	     -0.61951860	      8.96168100	     -4.75011201	     -0.11838182	    -30.70066130	     16.27813580	      6.14372397	     -5.72121511	      0.84954890	     -4.99127976
      1.69000000	     -0.75615256	     -2.96576926	      2.20255806	     -1.71597634	      1.06919029	     -0.30123916	      1.29328589	      5.21987855	      0.46940086	    -15.51423692	     18.55010043	     -0.51604629	     10.16231100	     -4.93493648	      0.27034060	    -32.79611473	     15.59384827	      6.38621745	     -6.01428218	      0.99181950	     -4.81706958
      1.70000000	     -0.78893292	     -3.10226694	      2.24938890	     -1.71529799	      1.06889555	     -0.29968738	      1.22942582	      5.44935659	      0.43428178	    -15.40507829	     18.62251580	     -0.44651228	     11.40066813	     -5.06083186	      0.69404560	    -34.91575379	     14.78246629	      6.63600894	     -6.30053781	      1.10524658	     -4.64247953
      1.71000000	     -0.82484498	     -3.20985968	      2.30515929	     -1.71450759	      1.06862858	     -0.29824660	      1.16261761	      5.64538244	      0.39553800	    -15.29773315	     18.68764398	     -0.41046836	     12.65562713	     -5.12520414	      1.13507726	    -37.01010221	     13.89221226	      6.87412411	     -6.57745996	      1.19042153	     -4.46274454
      1.72000000	     -0.86450119	     -3.28932072	      2.36722673	     -1.71357554	      1.06839423	     -0.29692402	      1.08482845	      5.80658929	      0.34560310	    -15.17756321	     18.74240632	     -0.40076314	     13.90622324	     -5.13094991	      1.56891710	    -39.02761920	     12.97303131	      7.07838448	     -6.84106309	      1.24772106	     -4.27219918
      1.73000000	     -0.91555789	     -3.33280609	      2.42773509	     -1.71249217	      1.06818064	     -0.29572265	      1.00987967	      5.92229613	      0.28905766	    -15.05882160	     18.79187011	     -0.40564490	     15.14194604	     -5.07592341	      1.95999105	    -40.92083390	     12.08551688	      7.23368401	     -7.08145924	      1.27019090	     -4.07456747
      1.74000000	     -0.97499068	     -3.33852756	      2.48640323	     -1.71123560	      1.06801039	     -0.29465028	      0.92667121	      5.98842117	      0.21914501	    -14.92782091	     18.80626745	     -0.40968503	     16.33810305	     -4.95976855	      2.29827639	    -42.63526791	     11.29398199	      7.30906840	     -7.30174746	      1.25412188	     -3.86235498
      1.75000000	     -1.05043156	     -3.30659233	      2.52661976	     -1.70979840	      1.06784394	     -0.29367630	      0.85220680	      6.00405419	      0.14538134	    -14.80604593	     18.88533887	     -0.40341602	     17.49797701	     -4.80807102	      2.51100797	    -44.14833775	     10.67264762	      7.28410640	     -7.49380235	      1.20106569	     -3.64920265
      1.76000000	     -1.13135594	     -3.23290144	      2.56650205	     -1.70814618	      1.06774313	     -0.29282262	      0.75508920	      5.96399709	      0.04376120	    -14.65302471	     18.90392232	     -0.37292403	     18.59074292	     -4.60909383	      2.63218972	    -45.40770753	     10.22248972	      7.14758748	     -7.66612036	      1.10388165	     -3.43564695
      1.77000000	     -1.22892053	     -3.12705293	      2.58411714	     -1.70630968	      1.06765390	     -0.29203474	      0.66820217	      5.88139696	     -0.05053364	    -14.51109026	     18.96411268	     -0.31763370	     19.63173504	     -4.39190632	      2.62526808	    -46.41110415	      9.97376598	      6.89760363	     -7.80967566	      0.97090808	     -3.21370869
      1.78000000	     -1.32984409	     -2.99217217	      2.58693997	     -1.70427292	      1.06760494	     -0.29131084	      0.56478875	      5.76059676	     -0.14535138	    -14.35396603	     19.01865172	     -0.23989001	     20.60063672	     -4.16518792	      2.49873729	    -47.14117642	      9.88904094	      6.56954635	     -7.94011654	      0.80746545	     -2.99144344
      1.79000000	     -1.41942916	     -2.81242912	      2.57443922	     -1.70201397	      1.06762622	     -0.29062639	      0.41876329	      5.58934194	     -0.21205151	    -14.16741958	     19.05523957	     -0.16177230	     21.47304909	     -3.91743782	      2.25860036	    -47.58692875	      9.92794383	      6.27688622	     -8.07221219	      0.59024812	     -2.77796421
      1.80000000	     -1.54111432	     -2.65821250	      2.54935479	     -1.69960836	      1.06758746	     -0.28996252	      0.30817550	      5.43973297	     -0.30885056	    -13.99373866	     19.10649488	     -0.04850952	     22.33323457	     -3.72682144	      1.91991125	    -47.80052418	      9.98749533	      5.83853717	     -8.16138570	      0.40046117	     -2.55705732
      1.81000000	     -1.65060333	     -2.47914750	      2.52138163	     -1.69699735	      1.06758421	     -0.28934540	      0.15873238	      5.26221611	     -0.38149829	    -13.79452822	     19.10802146	      0.06676092	     23.10318143	     -3.52935052	      1.51641454	    -47.75160638	     10.10959630	      5.42514720	     -8.25453373	      0.18475045	     -2.35899007
      1.82000000	     -1.75363913	     -2.27308925	      2.46819382	     -1.69420925	      1.06757110	     -0.28871775	     -0.00186209	      5.05550716	     -0.43697029	    -13.60887463	     19.14748454	      0.15232123	     23.79696326	     -3.33323095	      1.03736297	    -47.46721388	     10.22364615	      5.15088300	     -8.35084445	     -0.06943379	     -2.14205697
